<?xml version="1.0" encoding="UTF-8"?> <svg xmlns="http://www.w3.org/2000/svg" width="1289" height="426" viewBox="0 0 1289 426" fill="none"> <path d="M306.949 194.601L251.536 229.862V295.832L243.577 300.561L198.697 275.66L209.07 269.064L240.812 286.663V236.667L188.5 269.981L113.156 228.43V219.132L168.553 183.871V117.885L176.512 113.156L251.52 154.755V217.073L293.508 190.354L261.734 172.756V160.417L306.933 185.303L306.949 193.793V194.601ZM235.617 227.208L174.131 193.121L126.597 223.379L176.544 251.048L188.116 257.45L235.633 227.208H235.617ZM240.796 161.141L179.293 127.038V183.646L240.78 217.733V161.141H240.796ZM403.934 207.631H418.718V182.005H410.903V136.594H395.112V182.005H365.783V136.594H349.992V194.955H403.934V207.647V207.631ZM431.952 136.594V194.955H485.144V182.777H447.744V171.018H476.321V159.259H447.744V148.771H484.808V136.594H431.952ZM499.497 136.594V194.955H515.288V171.437H546.039V194.955H561.83V136.594H546.039V158.503H515.288V136.594H499.497ZM596.833 149.527V194.939H612.624V149.527H635.656V136.594H573.801V149.527H596.833ZM647.819 136.594V194.955H663.61V176.938H687.393C694.537 176.938 699.907 175.169 703.36 171.613C706.812 168.058 708.49 163.072 708.49 156.637C708.49 150.203 706.812 145.473 703.36 141.918C699.923 138.363 694.537 136.594 687.393 136.594H647.819ZM692.443 157.908C692.443 161.093 691.197 164.584 685.139 164.584H663.626V148.932H685.139C690.493 148.932 692.443 151.908 692.443 155.527V157.892V157.908ZM731.681 136.594L706.636 194.955H721.42L726.886 182.021H756.471L761.937 194.955H778.416L753.45 136.594H731.681ZM731.761 170.503L741.671 146.985L751.58 170.503H731.745H731.761ZM787.462 180.992V194.939H791.825C796.029 194.939 799.481 194.343 802.166 193.073C804.772 191.882 806.865 189.936 808.464 187.233C809.982 184.611 810.989 181.056 811.58 176.665C812.172 172.353 812.427 167.029 812.427 160.771V149.527H836.466V194.939H852.257V136.594H797.723V160.787C797.723 167.801 797.212 172.965 796.205 176.182C795.118 179.399 792.752 181.008 789.06 181.008H787.462V180.992ZM866.242 136.594V194.955H905.736C912.881 194.955 918.251 193.185 921.703 189.63C925.139 186.075 926.834 181.169 926.834 174.911C926.834 168.654 925.155 163.57 921.703 160.031C918.251 156.476 912.881 154.707 905.736 154.707H882.033V136.61H866.242V136.594ZM910.771 176.085C910.771 178.032 910.179 179.56 909.013 180.654C907.75 181.844 905.896 182.423 903.307 182.423H882.049V167.206H903.307C905.912 167.206 907.766 167.801 909.013 168.895C910.195 170.085 910.771 171.597 910.771 173.463V176.085ZM937.574 136.594V194.955H953.365V171.437H984.117V194.955H999.908V136.594H984.117V158.503H953.365V136.594H937.574ZM1014.63 136.594V194.955H1054.12C1061.27 194.955 1066.64 193.185 1070.09 189.63C1073.53 186.075 1075.22 181.169 1075.22 174.911C1075.22 168.654 1073.54 163.57 1070.09 160.031C1066.64 156.476 1061.27 154.707 1054.12 154.707H1030.42V136.61H1014.63V136.594ZM1059.16 176.085C1059.16 178.032 1058.57 179.56 1057.4 180.654C1056.14 181.844 1054.28 182.423 1051.69 182.423H1030.44V167.206H1051.69C1054.3 167.206 1056.15 167.801 1057.4 168.895C1058.58 170.085 1059.16 171.597 1059.16 173.463V176.085ZM369.459 282.545H384.914L419.038 224.184H403.487L386.337 253.622L367.269 224.184H349.88L378.106 267.649L369.459 282.529V282.545ZM428.516 224.184V282.545H444.307V259.027H475.059V282.545H490.85V224.184H475.059V246.093H444.307V224.184H428.516ZM554.142 243.712V282.529H569.934V224.167H552.96L521.953 262.984V224.167H506.161V282.529H523.135L554.142 243.712ZM585.309 224.184V282.545H625.554C631.948 282.545 636.726 281.113 639.923 278.153C643.04 275.193 644.622 270.963 644.622 265.461C644.622 262.083 643.775 259.203 642.017 256.758C640.259 254.313 637.398 252.608 633.45 251.595C636.982 250.404 639.412 248.635 640.85 246.19C642.193 243.825 642.864 241.203 642.864 238.323C642.864 233.674 641.266 230.119 638.165 227.755C635.048 225.39 630.525 224.2 624.723 224.2H585.309V224.184ZM627.073 241.782C627.073 243.728 626.481 245.16 625.315 246.174C624.052 247.187 622.374 247.702 620.104 247.702H600.941V234.591H620.104C622.374 234.591 624.052 235.106 625.315 236.023C626.497 236.956 627.073 238.388 627.073 240.173V241.782ZM628.831 265.799C628.831 267.906 628.16 269.434 626.817 270.528C625.474 271.622 623.541 272.137 621.111 272.137H600.941V257.595H621.111C623.636 257.595 625.57 258.11 626.913 259.123C628.176 260.217 628.847 261.665 628.847 263.611V265.815L628.831 265.799ZM657.233 224.184V282.545H710.424V270.367H673.024V258.608H701.601V246.849H673.024V236.361H710.088V224.184H657.233ZM723.274 224.184V282.545H739.066V264.528H762.848C769.993 264.528 775.363 262.759 778.815 259.203C782.252 255.648 783.946 250.662 783.946 244.227C783.946 237.793 782.268 233.063 778.815 229.508C775.363 225.953 769.993 224.184 762.848 224.184H723.274ZM767.899 245.498C767.899 247.525 767.307 249.133 766.221 250.324C765.038 251.595 763.2 252.19 760.595 252.19H739.082V236.538H760.595C763.2 236.538 765.054 237.133 766.221 238.404C767.307 239.675 767.899 241.203 767.899 243.133V245.498ZM792.928 253.445C792.928 259.107 793.679 263.933 795.278 267.826C796.796 271.799 798.97 274.936 801.911 277.22C804.772 279.504 808.288 281.193 812.491 282.207C816.695 283.22 821.394 283.735 826.684 283.735C836.354 283.735 843.994 282.126 849.716 278.909C855.342 275.772 858.618 270.367 859.545 262.839H843.578C842.731 266.314 840.893 268.598 838.032 269.692C835.171 270.882 831.399 271.461 826.684 271.461C821.394 271.461 817.11 270.448 813.834 268.501C810.557 266.555 808.959 262.582 808.959 256.742V249.97C808.959 247.01 809.375 244.565 810.302 242.618C811.149 240.672 812.316 239.24 813.914 238.13C815.512 237.037 817.35 236.264 819.54 235.846C821.73 235.428 824.079 235.251 826.684 235.251C831.559 235.251 835.427 235.846 838.288 237.02C841.149 238.211 842.907 240.656 843.498 244.372H859.465C858.714 236.506 855.438 230.924 849.796 227.706C844.09 224.57 836.354 222.977 826.684 222.977C821.394 222.977 816.679 223.492 812.491 224.505C808.288 225.599 804.756 227.304 801.911 229.669C798.97 232.114 796.78 235.251 795.278 239.144C793.679 243.037 792.928 247.766 792.928 253.445ZM919.226 243.712V282.529H935.017V224.167H918.043L887.036 262.984V224.167H871.245V282.529H888.219L919.226 243.712ZM968.805 237.117V282.529H984.596V237.117H1007.63V224.184H945.774V237.117H968.805ZM1018.29 224.184V282.545H1071.48V270.367H1034.08V258.608H1062.66V246.849H1034.08V236.361H1071.14V224.184H1018.29ZM1104.88 237.117V282.529H1120.68V237.117H1143.71V224.184H1081.85V237.117H1104.88ZM1081.31 136.577V194.939H1097.1V136.594H1081.31V136.577ZM1150.77 117.547C1150.61 121.987 1148.12 123.805 1143.88 123.805C1139.65 123.805 1137.15 121.987 1136.99 117.547H1125.37C1125.66 125.735 1130.7 132.347 1143.88 132.347C1157.07 132.347 1162.1 125.735 1162.39 117.547H1150.77ZM1158.59 136.577L1127.58 175.394V136.594H1111.79V194.955H1128.76L1159.77 156.138V194.955H1175.56V136.594H1158.59V136.577Z" fill="#E6E6E6"></path> </svg> 